<?xml version="1.0" encoding="UTF-8"?> <!-- Generator: Adobe Illustrator 24.0.1, SVG Export Plug-In . SVG Version: 6.00 Build 0) --> <svg xmlns="http://www.w3.org/2000/svg" xmlns:xlink="http://www.w3.org/1999/xlink" version="1.1" x="0px" y="0px" viewBox="0 0 601.9 309.9" style="enable-background:new 0 0 601.9 309.9;" xml:space="preserve"> <style type="text/css"> .st0{fill:#161616;} .st1{fill:#00DDC0;} .st2{fill:#FFAD00;} .st3{fill:#12C7FF;} .st4{fill:#FC3232;} .st5{fill:#FFFFFF;stroke:#000000;stroke-width:14;stroke-miterlimit:10;} .st6{fill:none;} .st7{fill:#FFFFFF;} .st8{fill:#D5548F;} .st9{fill:#00B5FF;} .st10{fill:#00DDC0;stroke:#FFFFFF;stroke-width:14;stroke-miterlimit:10;} .st11{fill:#FFAD00;stroke:#FFFFFF;stroke-width:14;stroke-miterlimit:10;} .st12{fill:#12C7FF;stroke:#FFFFFF;stroke-width:14;stroke-miterlimit:10;} .st13{fill:#ED1C24;stroke:#FFFFFF;stroke-width:0.75;stroke-miterlimit:10;} .st14{fill:url(#SVGID_1_);} .st15{fill:url(#SVGID_2_);} .st16{fill:url(#SVGID_3_);} .st17{fill:url(#SVGID_4_);} .st18{fill:url(#SVGID_5_);} .st19{fill:#FFFFFF;stroke:#00DDC0;stroke-width:13;stroke-miterlimit:10;} .st20{fill:url(#SVGID_6_);} .st21{fill:#FC3232;stroke:#FFFFFF;stroke-width:14;stroke-miterlimit:10;} .st22{fill:url(#SVGID_7_);} .st23{fill:none;stroke:#FFFFFF;stroke-width:14;stroke-miterlimit:10;} .st24{fill:url(#SVGID_8_);} .st25{fill:url(#SVGID_9_);} .st26{fill:url(#SVGID_10_);} .st27{fill:url(#SVGID_11_);} .st28{fill:url(#SVGID_12_);} .st29{fill:url(#SVGID_13_);} .st30{fill:#FC3232;stroke:#FFFFFF;stroke-width:6;stroke-miterlimit:10;} .st31{fill:url(#SVGID_14_);} .st32{fill:none;stroke:#FFFFFF;stroke-width:8;stroke-miterlimit:10;} </style> <g id="Layer_1"> <g id="Layer_4"> <g> </g> <g> </g> </g> </g> <g id="Layer_2"> <g> <g> <path class="st7" d="M270.6,306.8l1.3-35.1h-37.3l-10.9,35.1h-42.6l47.2-132.3l8.5-4L205.4,146h33.1h73.7l0.9,160.8H270.6z M261.5,185.1l-17.6,56.7h29.2l2.5-56.7H261.5z"></path> <path class="st7" d="M423.4,306.8h-89.2L362.6,146h40.2l-22.1,125.9h61.6L423.4,306.8z"></path> <path class="st7" d="M579.5,180.8h-42.3l-22.1,125.9h-40.4l22.1-125.9h-55.1l6.3-34.8h150.5L579.5,180.8z"></path> <path class="st7" d="M557.1,293.8c0-9.5,2.1-16.5,6.3-20.9c4.2-4.4,10.8-6.6,19.9-6.6c12.5,0,18.8,5.5,18.8,16.5 c0,9.4-2.1,16.2-6.4,20.5c-4.2,4.3-10.9,6.5-20,6.5C563.2,309.9,557.1,304.5,557.1,293.8z"></path> </g> </g> <polygon class="st4" points="0,0 0,306.9 157.8,306.9 170.7,270.7 39.4,270.3 39.4,36.6 270.3,36.6 270.3,126.7 312.6,126.7 312.6,0 "></polygon> </g> <g id="Layer_3"> </g> </svg> 